STARTFONT 2.1
FONT -DEC-FrankRuhl-Medium-R-Normal--12-120-75-75-P-70-ISO8859-8
SIZE 12 75 75
FONTBOUNDINGBOX 11 13 0 -3

STARTPROPERTIES 26
FONTNAME_REGISTRY ""
FAMILY_NAME "FrankRuhl"
FOUNDRY "DEC"
WEIGHT_NAME "Medium"
SLANT "R"
SETWIDTH_NAME "Normal"
ADD_STYLE_NAME ""
PIXEL_SIZE 12
RESOLUTION_X 75
RESOLUTION_Y 75
SPACING "P"
AVERAGE_WIDTH 70
CHARSET_REGISTRY "ISO8859"
CHARSET_ENCODING "8"
CHARSET_COLLECTIONS "ASCII ISO8859-8 "
FULL_NAME "New Cenury Schoolbook "
COPYRIGHT "Digital Israel"
CAP_HEIGHT 9
X_HEIGHT 6
_DEC_DEVICE_FONTNAMES "PS=FrankRuhl-ISOLatinHebrew"
QUAD_WIDTH 6
POINT_SIZE 120
WEIGHT 10
DEFAULT_CHAR 0
FONT_DESCENT 3
FONT_ASCENT 11
ENDPROPERTIES

CHARS 152

STARTCHAR space
ENCODING 32
SWIDTH 240 0
DWIDTH 3 0
BBX 1 1 0 0
BITMAP
00
ENDCHAR

STARTCHAR exclam
ENCODING 33
SWIDTH 320 0
DWIDTH 4 0
BBX 1 9 1 0
BITMAP
80
80
80
80
80
80
00
80
80
ENDCHAR

STARTCHAR quotedbl
ENCODING 34
SWIDTH 480 0
DWIDTH 6 0
BBX 3 3 1 6
BITMAP
A0
A0
A0
ENDCHAR

STARTCHAR numbersign
ENCODING 35
SWIDTH 640 0
DWIDTH 8 0
BBX 7 8 0 0
BITMAP
14
14
7E
28
28
FC
50
50
ENDCHAR

STARTCHAR dollar
ENCODING 36
SWIDTH 480 0
DWIDTH 6 0
BBX 5 11 0 -1
BITMAP
20
78
A8
A0
A0
70
28
28
A8
F0
20
ENDCHAR

STARTCHAR percent
ENCODING 37
SWIDTH 880 0
DWIDTH 11 0
BBX 10 9 0 0
BITMAP
7E00
9200
9400
9400
6980
0A40
1240
1240
2180
ENDCHAR

STARTCHAR ampersand
ENCODING 38
SWIDTH 720 0
DWIDTH 9 0
BBX 8 9 0 0
BITMAP
30
48
48
30
67
92
8C
C9
76
ENDCHAR

STARTCHAR quoteright
ENCODING 39
SWIDTH 320 0
DWIDTH 4 0
BBX 2 3 0 6
BITMAP
40
40
80
ENDCHAR

STARTCHAR parenleft
ENCODING 40
SWIDTH 320 0
DWIDTH 4 0
BBX 3 11 0 -2
BITMAP
20
40
40
80
80
80
80
80
40
40
20
ENDCHAR

STARTCHAR parenright
ENCODING 41
SWIDTH 320 0
DWIDTH 4 0
BBX 3 11 0 -2
BITMAP
80
40
40
20
20
20
20
20
40
40
80
ENDCHAR

STARTCHAR asterisk
ENCODING 42
SWIDTH 480 0
DWIDTH 6 0
BBX 5 5 0 4
BITMAP
20
A8
70
A8
20
ENDCHAR

STARTCHAR plus
ENCODING 43
SWIDTH 640 0
DWIDTH 8 0
BBX 7 7 0 0
BITMAP
10
10
10
FE
10
10
10
ENDCHAR

STARTCHAR comma
ENCODING 44
SWIDTH 320 0
DWIDTH 4 0
BBX 2 3 0 -1
BITMAP
40
40
80
ENDCHAR

STARTCHAR minus
ENCODING 45
SWIDTH 560 0
DWIDTH 7 0
BBX 6 1 0 3
BITMAP
FC
ENDCHAR

STARTCHAR period
ENCODING 46
SWIDTH 320 0
DWIDTH 4 0
BBX 1 2 1 0
BITMAP
80
80
ENDCHAR

STARTCHAR slash
ENCODING 47
SWIDTH 320 0
DWIDTH 4 0
BBX 3 9 0 0
BITMAP
20
20
20
40
40
40
80
80
80
ENDCHAR

STARTCHAR zero
ENCODING 48
SWIDTH 480 0
DWIDTH 6 0
BBX 5 9 0 0
BITMAP
70
88
88
88
88
88
88
88
70
ENDCHAR

STARTCHAR one
ENCODING 49
SWIDTH 480 0
DWIDTH 6 0
BBX 3 9 1 0
BITMAP
40
C0
40
40
40
40
40
40
E0
ENDCHAR

STARTCHAR two
ENCODING 50
SWIDTH 480 0
DWIDTH 6 0
BBX 5 9 0 0
BITMAP
70
88
88
08
10
20
40
88
F8
ENDCHAR

STARTCHAR three
ENCODING 51
SWIDTH 480 0
DWIDTH 6 0
BBX 5 9 0 0
BITMAP
70
88
88
18
30
08
88
88
70
ENDCHAR

STARTCHAR four
ENCODING 52
SWIDTH 480 0
DWIDTH 6 0
BBX 5 9 0 0
BITMAP
10
30
30
50
50
90
F8
10
38
ENDCHAR

STARTCHAR five
ENCODING 53
SWIDTH 480 0
DWIDTH 6 0
BBX 5 9 0 0
BITMAP
F8
80
80
F0
98
08
08
98
F0
ENDCHAR

STARTCHAR six
ENCODING 54
SWIDTH 480 0
DWIDTH 6 0
BBX 5 9 0 0
BITMAP
38
48
80
B0
D8
88
88
88
70
ENDCHAR

STARTCHAR seven
ENCODING 55
SWIDTH 480 0
DWIDTH 6 0
BBX 5 9 0 0
BITMAP
F8
88
10
10
10
20
20
20
20
ENDCHAR

STARTCHAR eight
ENCODING 56
SWIDTH 480 0
DWIDTH 6 0
BBX 5 9 0 0
BITMAP
70
88
88
50
70
88
88
88
70
ENDCHAR

STARTCHAR nine
ENCODING 57
SWIDTH 480 0
DWIDTH 6 0
BBX 5 9 0 0
BITMAP
70
88
88
88
D8
68
08
90
E0
ENDCHAR

STARTCHAR colon
ENCODING 58
SWIDTH 320 0
DWIDTH 4 0
BBX 1 6 1 0
BITMAP
80
80
00
00
80
80
ENDCHAR

STARTCHAR semicolon
ENCODING 59
SWIDTH 320 0
DWIDTH 4 0
BBX 2 7 0 -1
BITMAP
40
40
00
00
40
40
80
ENDCHAR

STARTCHAR less
ENCODING 60
SWIDTH 560 0
DWIDTH 7 0
BBX 6 5 0 1
BITMAP
0C
30
C0
30
0C
ENDCHAR

STARTCHAR equal
ENCODING 61
SWIDTH 560 0
DWIDTH 7 0
BBX 6 3 0 2
BITMAP
FC
00
FC
ENDCHAR

STARTCHAR greater
ENCODING 62
SWIDTH 560 0
DWIDTH 7 0
BBX 6 5 0 1
BITMAP
C0
30
0C
30
C0
ENDCHAR

STARTCHAR question
ENCODING 63
SWIDTH 400 0
DWIDTH 5 0
BBX 4 9 0 0
BITMAP
E0
90
10
20
40
40
00
40
40
ENDCHAR

STARTCHAR at
ENCODING 64
SWIDTH 800 0
DWIDTH 10 0
BBX 9 9 0 0
BITMAP
1E00
2100
4E80
9280
A480
AD00
9600
4000
3C00
ENDCHAR

STARTCHAR A
ENCODING 65
SWIDTH 800 0
DWIDTH 10 0
BBX 9 9 0 0
BITMAP
0800
0800
1400
1400
2200
3E00
4100
4100
E380
ENDCHAR

STARTCHAR B
ENCODING 66
SWIDTH 640 0
DWIDTH 8 0
BBX 7 9 0 0
BITMAP
F8
44
44
48
7C
42
42
46
FC
ENDCHAR

STARTCHAR C
ENCODING 67
SWIDTH 720 0
DWIDTH 9 0
BBX 8 9 0 0
BITMAP
3D
43
C1
80
80
81
C1
42
3C
ENDCHAR

STARTCHAR D
ENCODING 68
SWIDTH 720 0
DWIDTH 9 0
BBX 8 9 0 0
BITMAP
FC
42
43
41
41
41
43
42
FC
ENDCHAR

STARTCHAR E
ENCODING 69
SWIDTH 640 0
DWIDTH 8 0
BBX 7 9 0 0
BITMAP
FE
42
42
48
78
48
42
42
FE
ENDCHAR

STARTCHAR F
ENCODING 70
SWIDTH 640 0
DWIDTH 8 0
BBX 7 9 0 0
BITMAP
FE
42
42
48
78
48
40
40
E0
ENDCHAR

STARTCHAR G
ENCODING 71
SWIDTH 800 0
DWIDTH 10 0
BBX 9 9 0 0
BITMAP
3D00
4300
C100
8100
8000
8780
C100
4300
3D00
ENDCHAR

STARTCHAR H
ENCODING 72
SWIDTH 800 0
DWIDTH 10 0
BBX 9 9 0 0
BITMAP
E380
4100
4100
4100
7F00
4100
4100
4100
E380
ENDCHAR

STARTCHAR I
ENCODING 73
SWIDTH 480 0
DWIDTH 6 0
BBX 3 9 1 0
BITMAP
E0
40
40
40
40
40
40
40
E0
ENDCHAR

STARTCHAR J
ENCODING 74
SWIDTH 560 0
DWIDTH 7 0
BBX 6 9 0 0
BITMAP
1C
08
08
08
08
08
C8
88
70
ENDCHAR

STARTCHAR K
ENCODING 75
SWIDTH 720 0
DWIDTH 9 0
BBX 8 9 0 0
BITMAP
EE
44
48
50
70
48
44
42
E7
ENDCHAR

STARTCHAR L
ENCODING 76
SWIDTH 640 0
DWIDTH 8 0
BBX 7 9 0 0
BITMAP
F0
40
40
40
40
40
42
42
FE
ENDCHAR

STARTCHAR M
ENCODING 77
SWIDTH 960 0
DWIDTH 12 0
BBX 11 9 0 0
BITMAP
E0E0
60C0
60C0
5140
5140
4A40
4A40
4440
E4E0
ENDCHAR

STARTCHAR N
ENCODING 78
SWIDTH 800 0
DWIDTH 10 0
BBX 9 9 0 0
BITMAP
E380
6100
5100
5100
4900
4900
4500
4500
E300
ENDCHAR

STARTCHAR O
ENCODING 79
SWIDTH 720 0
DWIDTH 9 0
BBX 8 9 0 0
BITMAP
3C
42
C3
81
81
81
C3
42
3C
ENDCHAR

STARTCHAR P
ENCODING 80
SWIDTH 640 0
DWIDTH 8 0
BBX 7 9 0 0
BITMAP
FC
42
42
42
7C
40
40
40
E0
ENDCHAR

STARTCHAR Q
ENCODING 81
SWIDTH 720 0
DWIDTH 9 0
BBX 9 11 0 -2
BITMAP
3C00
4200
C300
8100
8100
B100
CB00
4600
3C00
0480
0300
ENDCHAR

STARTCHAR R
ENCODING 82
SWIDTH 720 0
DWIDTH 9 0
BBX 8 9 0 0
BITMAP
F8
44
44
4C
78
44
44
45
E3
ENDCHAR

STARTCHAR S
ENCODING 83
SWIDTH 560 0
DWIDTH 7 0
BBX 6 9 0 0
BITMAP
74
8C
84
C0
78
0C
84
C4
B8
ENDCHAR

STARTCHAR T
ENCODING 84
SWIDTH 640 0
DWIDTH 8 0
BBX 7 9 0 0
BITMAP
FE
92
92
10
10
10
10
10
38
ENDCHAR

STARTCHAR U
ENCODING 85
SWIDTH 800 0
DWIDTH 10 0
BBX 9 9 0 0
BITMAP
E380
4100
4100
4100
4100
4100
4100
6300
3E00
ENDCHAR

STARTCHAR V
ENCODING 86
SWIDTH 800 0
DWIDTH 10 0
BBX 9 9 0 0
BITMAP
E380
4100
4100
2200
2200
1400
1400
0800
0800
ENDCHAR

STARTCHAR W
ENCODING 87
SWIDTH 960 0
DWIDTH 12 0
BBX 11 9 0 0
BITMAP
EEE0
4440
4440
2A80
2A80
2A80
1100
1100
1100
ENDCHAR

STARTCHAR X
ENCODING 88
SWIDTH 720 0
DWIDTH 9 0
BBX 8 9 0 0
BITMAP
E7
42
24
14
18
28
24
42
E7
ENDCHAR

STARTCHAR Y
ENCODING 89
SWIDTH 800 0
DWIDTH 10 0
BBX 9 9 0 0
BITMAP
E380
4100
2200
2200
1400
0800
0800
0800
1C00
ENDCHAR

STARTCHAR Z
ENCODING 90
SWIDTH 560 0
DWIDTH 7 0
BBX 6 9 0 0
BITMAP
FC
84
08
10
10
20
40
84
FC
ENDCHAR

STARTCHAR bracketleft
ENCODING 91
SWIDTH 320 0
DWIDTH 4 0
BBX 3 11 0 -2
BITMAP
E0
80
80
80
80
80
80
80
80
80
E0
ENDCHAR

STARTCHAR backslash
ENCODING 92
SWIDTH 480 0
DWIDTH 6 0
BBX 5 9 0 0
BITMAP
80
80
40
40
20
20
10
10
08
ENDCHAR

STARTCHAR bracketright
ENCODING 93
SWIDTH 320 0
DWIDTH 4 0
BBX 3 11 0 -2
BITMAP
E0
20
20
20
20
20
20
20
20
20
E0
ENDCHAR

STARTCHAR asciicircum
ENCODING 94
SWIDTH 480 0
DWIDTH 6 0
BBX 5 6 0 3
BITMAP
20
20
50
50
88
88
ENDCHAR

STARTCHAR underscore
ENCODING 95
SWIDTH 640 0
DWIDTH 8 0
BBX 8 1 0 -2
BITMAP
FF
ENDCHAR

STARTCHAR quoteleft
ENCODING 96
SWIDTH 320 0
DWIDTH 4 0
BBX 2 3 1 6
BITMAP
40
80
80
ENDCHAR

STARTCHAR a
ENCODING 97
SWIDTH 560 0
DWIDTH 7 0
BBX 6 6 0 0
BITMAP
70
88
38
C8
98
6C
ENDCHAR

STARTCHAR b
ENCODING 98
SWIDTH 480 0
DWIDTH 6 0
BBX 6 9 0 0
BITMAP
C0
40
40
58
64
44
44
44
78
ENDCHAR

STARTCHAR c
ENCODING 99
SWIDTH 480 0
DWIDTH 6 0
BBX 5 6 0 0
BITMAP
70
88
80
80
88
70
ENDCHAR

STARTCHAR d
ENCODING 100
SWIDTH 560 0
DWIDTH 7 0
BBX 6 9 0 0
BITMAP
18
08
08
78
88
88
88
98
6C
ENDCHAR

STARTCHAR e
ENCODING 101
SWIDTH 480 0
DWIDTH 6 0
BBX 5 6 0 0
BITMAP
70
88
F8
80
88
70
ENDCHAR

STARTCHAR f
ENCODING 102
SWIDTH 320 0
DWIDTH 4 0
BBX 4 9 0 0
BITMAP
30
50
40
E0
40
40
40
40
E0
ENDCHAR

STARTCHAR g
ENCODING 103
SWIDTH 560 0
DWIDTH 7 0
BBX 6 10 0 -3
BITMAP
0C
70
88
88
70
40
78
84
84
78
ENDCHAR

STARTCHAR h
ENCODING 104
SWIDTH 640 0
DWIDTH 8 0
BBX 7 9 0 0
BITMAP
C0
40
40
58
64
44
44
44
EE
ENDCHAR

STARTCHAR i
ENCODING 105
SWIDTH 320 0
DWIDTH 4 0
BBX 3 9 0 0
BITMAP
40
40
00
C0
40
40
40
40
E0
ENDCHAR

STARTCHAR j
ENCODING 106
SWIDTH 320 0
DWIDTH 4 0
BBX 3 12 0 -3
BITMAP
20
20
00
60
20
20
20
20
20
20
20
C0
ENDCHAR

STARTCHAR k
ENCODING 107
SWIDTH 560 0
DWIDTH 7 0
BBX 6 9 0 0
BITMAP
C0
40
40
4C
50
60
50
48
EC
ENDCHAR

STARTCHAR l
ENCODING 108
SWIDTH 320 0
DWIDTH 4 0
BBX 3 9 0 0
BITMAP
C0
40
40
40
40
40
40
40
E0
ENDCHAR

STARTCHAR m
ENCODING 109
SWIDTH 960 0
DWIDTH 12 0
BBX 11 6 0 0
BITMAP
D980
6640
4440
4440
4440
EEE0
ENDCHAR

STARTCHAR n
ENCODING 110
SWIDTH 640 0
DWIDTH 8 0
BBX 7 6 0 0
BITMAP
D8
64
44
44
44
EE
ENDCHAR

STARTCHAR o
ENCODING 111
SWIDTH 480 0
DWIDTH 6 0
BBX 5 6 0 0
BITMAP
70
88
88
88
88
70
ENDCHAR

STARTCHAR p
ENCODING 112
SWIDTH 560 0
DWIDTH 7 0
BBX 6 9 0 -3
BITMAP
D8
64
44
44
44
78
40
40
E0
ENDCHAR

STARTCHAR q
ENCODING 113
SWIDTH 480 0
DWIDTH 6 0
BBX 6 9 0 -3
BITMAP
78
88
88
88
98
68
08
08
1C
ENDCHAR

STARTCHAR r
ENCODING 114
SWIDTH 480 0
DWIDTH 6 0
BBX 5 6 0 0
BITMAP
D8
68
40
40
40
E0
ENDCHAR

STARTCHAR s
ENCODING 115
SWIDTH 480 0
DWIDTH 6 0
BBX 5 6 0 0
BITMAP
78
88
E0
38
88
F0
ENDCHAR

STARTCHAR t
ENCODING 116
SWIDTH 320 0
DWIDTH 4 0
BBX 4 8 0 0
BITMAP
40
40
E0
40
40
40
40
30
ENDCHAR

STARTCHAR u
ENCODING 117
SWIDTH 640 0
DWIDTH 8 0
BBX 7 6 0 0
BITMAP
CC
44
44
44
4C
36
ENDCHAR

STARTCHAR v
ENCODING 118
SWIDTH 480 0
DWIDTH 6 0
BBX 7 6 0 0
BITMAP
EE
44
28
28
10
10
ENDCHAR

STARTCHAR w
ENCODING 119
SWIDTH 800 0
DWIDTH 10 0
BBX 11 6 0 0
BITMAP
EEE0
4440
2A80
2A80
1100
1100
ENDCHAR

STARTCHAR x
ENCODING 120
SWIDTH 560 0
DWIDTH 7 0
BBX 6 6 0 0
BITMAP
CC
48
30
30
48
CC
ENDCHAR

STARTCHAR y
ENCODING 121
SWIDTH 480 0
DWIDTH 6 0
BBX 7 9 0 -3
BITMAP
EE
44
44
28
28
10
10
A0
C0
ENDCHAR

STARTCHAR z
ENCODING 122
SWIDTH 480 0
DWIDTH 6 0
BBX 5 6 0 0
BITMAP
F8
90
20
40
88
F8
ENDCHAR

STARTCHAR braceleft
ENCODING 123
SWIDTH 320 0
DWIDTH 4 0
BBX 3 11 0 -2
BITMAP
20
40
40
40
40
80
40
40
40
40
20
ENDCHAR

STARTCHAR bar
ENCODING 124
SWIDTH 640 0
DWIDTH 8 0
BBX 1 9 3 0
BITMAP
80
80
80
80
80
80
80
80
80
ENDCHAR

STARTCHAR braceright
ENCODING 125
SWIDTH 320 0
DWIDTH 4 0
BBX 3 11 0 -2
BITMAP
80
40
40
40
40
20
40
40
40
40
80
ENDCHAR

STARTCHAR asciitilde
ENCODING 126
SWIDTH 560 0
DWIDTH 7 0
BBX 6 2 0 3
BITMAP
64
98
ENDCHAR

STARTCHAR cent
ENCODING 162
SWIDTH 560 0
DWIDTH 7 0
BBX 5 8 1 -1
BITMAP
08
70
98
A0
A0
C8
70
80
ENDCHAR

STARTCHAR sterling
ENCODING 163
SWIDTH 640 0
DWIDTH 8 0
BBX 7 9 0 0
BITMAP
1C
22
26
20
7C
10
D0
A2
DE
ENDCHAR

STARTCHAR currency
ENCODING 164
SWIDTH 640 0
DWIDTH 8 0
BBX 5 7 1 1
BITMAP
88
70
88
88
88
70
88
ENDCHAR

STARTCHAR yen
ENCODING 165
SWIDTH 640 0
DWIDTH 8 0
BBX 7 9 0 0
BITMAP
EE
44
44
28
7C
10
7C
10
38
ENDCHAR

STARTCHAR brokenbar
ENCODING 166
SWIDTH 640 0
DWIDTH 8 0
BBX 1 9 3 0
BITMAP
80
80
80
00
00
80
80
80
80
ENDCHAR

STARTCHAR section
ENCODING 167
SWIDTH 480 0
DWIDTH 6 0
BBX 5 11 0 -2
BITMAP
70
90
80
60
98
88
C8
30
10
90
E0
ENDCHAR

STARTCHAR dieresis
ENCODING 168
SWIDTH 320 0
DWIDTH 4 0
BBX 3 2 0 7
BITMAP
A0
A0
ENDCHAR

STARTCHAR copyright
ENCODING 169
SWIDTH 880 0
DWIDTH 11 0
BBX 10 9 0 0
BITMAP
3F00
4080
9E40
A240
A040
A140
9E40
4080
3F00
ENDCHAR

STARTCHAR multiply
ENCODING 170
SWIDTH 640 0
DWIDTH 8 0
BBX 7 7 0 0
BITMAP
82
44
28
10
28
44
82
ENDCHAR

STARTCHAR guillemotleft
ENCODING 171
SWIDTH 560 0
DWIDTH 7 0
BBX 6 5 0 1
BITMAP
24
48
90
48
24
ENDCHAR

STARTCHAR logicalnot
ENCODING 172
SWIDTH 560 0
DWIDTH 7 0
BBX 6 3 0 2
BITMAP
FC
04
04
ENDCHAR

STARTCHAR hyphen
ENCODING 173
SWIDTH 320 0
DWIDTH 4 0
BBX 3 1 0 3
BITMAP
E0
ENDCHAR

STARTCHAR registered
ENCODING 174
SWIDTH 880 0
DWIDTH 11 0
BBX 10 9 0 0
BITMAP
3F00
4080
BE40
9240
9C40
9240
BB40
4080
3F00
ENDCHAR

STARTCHAR macron
ENCODING 175
SWIDTH 400 0
DWIDTH 5 0
BBX 4 1 0 7
BITMAP
F0
ENDCHAR

STARTCHAR degree
ENCODING 176
SWIDTH 400 0
DWIDTH 5 0
BBX 4 4 0 5
BITMAP
60
90
90
60
ENDCHAR

STARTCHAR plusminus
ENCODING 177
SWIDTH 640 0
DWIDTH 8 0
BBX 7 7 0 0
BITMAP
10
10
FE
10
10
00
FE
ENDCHAR

STARTCHAR twosuperior
ENCODING 178
SWIDTH 320 0
DWIDTH 4 0
BBX 4 5 0 4
BITMAP
60
90
20
40
F0
ENDCHAR

STARTCHAR threesuperior
ENCODING 179
SWIDTH 320 0
DWIDTH 4 0
BBX 4 5 0 4
BITMAP
60
90
20
90
60
ENDCHAR

STARTCHAR acute
ENCODING 180
SWIDTH 240 0
DWIDTH 3 0
BBX 2 2 0 7
BITMAP
40
80
ENDCHAR

STARTCHAR mu
ENCODING 181
SWIDTH 640 0
DWIDTH 8 0
BBX 7 9 0 -3
BITMAP
CC
44
44
44
4C
76
40
40
40
ENDCHAR

STARTCHAR paragraph
ENCODING 182
SWIDTH 640 0
DWIDTH 8 0
BBX 7 11 0 -2
BITMAP
7E
D4
D4
D4
74
14
14
14
14
14
3E
ENDCHAR

STARTCHAR periodcentered
ENCODING 183
SWIDTH 320 0
DWIDTH 4 0
BBX 1 2 1 3
BITMAP
80
80
ENDCHAR

STARTCHAR cedilla
ENCODING 184
SWIDTH 320 0
DWIDTH 4 0
BBX 2 3 1 -3
BITMAP
80
40
C0
ENDCHAR

STARTCHAR onesuperior
ENCODING 185
SWIDTH 320 0
DWIDTH 4 0
BBX 3 5 0 4
BITMAP
40
C0
40
40
E0
ENDCHAR

STARTCHAR divide
ENCODING 186
SWIDTH 640 0
DWIDTH 8 0
BBX 7 7 0 0
BITMAP
10
10
00
FE
00
10
10
ENDCHAR

STARTCHAR guillemotright
ENCODING 187
SWIDTH 560 0
DWIDTH 7 0
BBX 6 5 0 1
BITMAP
90
48
24
48
90
ENDCHAR

STARTCHAR onequarter
ENCODING 188
SWIDTH 720 0
DWIDTH 9 0
BBX 9 9 0 0
BITMAP
4200
C400
4400
4800
E900
1300
1500
2780
2100
ENDCHAR

STARTCHAR onehalf
ENCODING 189
SWIDTH 720 0
DWIDTH 9 0
BBX 9 9 0 0
BITMAP
4200
C400
4400
4800
EB00
1480
1100
2200
2780
ENDCHAR

STARTCHAR threequarters
ENCODING 190
SWIDTH 720 0
DWIDTH 9 0
BBX 9 9 0 0
BITMAP
6200
9200
2400
9400
6900
0B00
1500
1780
2100
ENDCHAR

STARTCHAR dblunderscore
ENCODING 223
SWIDTH 480 0
DWIDTH 6 0
BBX 6 4 0 -3
BITMAP
FC
00
00
FC
ENDCHAR

STARTCHAR aleph
ENCODING 224
SWIDTH 640 0
DWIDTH 8 0
BBX 8 8 0 0
BITMAP
48
6E
24
34
48
44
24
62
ENDCHAR

STARTCHAR beth
ENCODING 225
SWIDTH 560 0
DWIDTH 7 0
BBX 6 9 0 0
BITMAP
00
80
F0
08
08
08
08
08
FC
ENDCHAR

STARTCHAR gimmel
ENCODING 226
SWIDTH 480 0
DWIDTH 6 0
BBX 5 8 0 0
BITMAP
40
70
10
10
10
10
28
C8
ENDCHAR

STARTCHAR daleth
ENCODING 227
SWIDTH 480 0
DWIDTH 6 0
BBX 5 9 0 0
BITMAP
00
80
F8
10
10
10
10
18
10
ENDCHAR

STARTCHAR he
ENCODING 228
SWIDTH 560 0
DWIDTH 7 0
BBX 7 8 0 0
BITMAP
40
78
04
04
44
44
46
44
ENDCHAR

STARTCHAR waw
ENCODING 229
SWIDTH 320 0
DWIDTH 4 0
BBX 4 9 0 -1
BITMAP
80
E0
20
20
20
20
20
20
00
ENDCHAR

STARTCHAR zayin
ENCODING 230
SWIDTH 400 0
DWIDTH 5 0
BBX 4 9 0 -1
BITMAP
80
F0
20
40
40
40
60
40
00
ENDCHAR

STARTCHAR het
ENCODING 231
SWIDTH 640 0
DWIDTH 8 0
BBX 7 8 1 0
BITMAP
80
F8
84
88
88
88
8C
88
ENDCHAR

STARTCHAR teth
ENCODING 232
SWIDTH 720 0
DWIDTH 9 0
BBX 9 8 0 0
BITMAP
4400
6600
2900
4100
4100
4100
2200
3E00
ENDCHAR

STARTCHAR yod
ENCODING 233
SWIDTH 400 0
DWIDTH 5 0
BBX 4 8 0 0
BITMAP
80
F0
10
10
20
00
00
00
ENDCHAR

STARTCHAR kaphfinal
ENCODING 234
SWIDTH 560 0
DWIDTH 7 0
BBX 6 10 0 -2
BITMAP
80
FC
08
08
08
08
08
08
08
08
ENDCHAR

STARTCHAR kaph
ENCODING 235
SWIDTH 480 0
DWIDTH 6 0
BBX 5 8 0 0
BITMAP
80
F0
08
08
08
08
08
F0
ENDCHAR

STARTCHAR lamed
ENCODING 236
SWIDTH 480 0
DWIDTH 6 0
BBX 5 9 0 0
BITMAP
80
80
F0
08
08
08
10
20
20
ENDCHAR

STARTCHAR memfinal
ENCODING 237
SWIDTH 560 0
DWIDTH 7 0
BBX 7 8 0 0
BITMAP
80
F8
44
84
84
84
84
FC
ENDCHAR

STARTCHAR mem
ENCODING 238
SWIDTH 720 0
DWIDTH 9 0
BBX 8 8 0 0
BITMAP
40
64
1A
21
21
41
41
4E
ENDCHAR

STARTCHAR nunfinal
ENCODING 239
SWIDTH 320 0
DWIDTH 4 0
BBX 4 10 0 -2
BITMAP
80
E0
20
20
20
20
20
20
20
20
ENDCHAR

STARTCHAR nun
ENCODING 240
SWIDTH 400 0
DWIDTH 5 0
BBX 4 9 0 -1
BITMAP
40
70
10
10
10
10
10
F0
00
ENDCHAR

STARTCHAR samekh
ENCODING 241
SWIDTH 640 0
DWIDTH 8 0
BBX 8 9 0 0
BITMAP
00
40
7C
26
42
42
42
24
18
ENDCHAR

STARTCHAR ayin
ENCODING 242
SWIDTH 640 0
DWIDTH 8 0
BBX 7 10 0 -2
BITMAP
84
E6
42
24
24
14
14
F8
00
00
ENDCHAR

STARTCHAR pefinal
ENCODING 243
SWIDTH 560 0
DWIDTH 7 0
BBX 6 11 0 -3
BITMAP
80
F8
44
84
C4
A4
04
04
04
04
00
ENDCHAR

STARTCHAR pe
ENCODING 244
SWIDTH 560 0
DWIDTH 7 0
BBX 6 9 0 -1
BITMAP
80
F8
44
84
E4
04
04
F8
00
ENDCHAR

STARTCHAR zadikfinal
ENCODING 245
SWIDTH 560 0
DWIDTH 7 0
BBX 6 10 0 -2
BITMAP
90
DC
48
50
60
40
40
40
40
40
ENDCHAR

STARTCHAR zadik
ENCODING 246
SWIDTH 560 0
DWIDTH 7 0
BBX 6 8 0 0
BITMAP
90
DC
44
48
30
10
08
F8
ENDCHAR

STARTCHAR kof
ENCODING 247
SWIDTH 560 0
DWIDTH 7 0
BBX 6 10 0 -2
BITMAP
80
F8
04
44
44
48
50
50
40
40
ENDCHAR

STARTCHAR resh
ENCODING 248
SWIDTH 480 0
DWIDTH 6 0
BBX 5 8 0 0
BITMAP
80
F0
08
08
08
08
08
08
ENDCHAR

STARTCHAR shin
ENCODING 249
SWIDTH 720 0
DWIDTH 9 0
BBX 8 8 0 0
BITMAP
92
DB
49
89
92
92
54
7C
ENDCHAR

STARTCHAR taf
ENCODING 250
SWIDTH 560 0
DWIDTH 7 0
BBX 7 8 0 0
BITMAP
80
F8
4C
44
44
24
24
E4
ENDCHAR
ENDFONT
